<?xml version="1.0" encoding="UTF-8"?>
<svg id="Layer_2" data-name="Layer 2" xmlns="http://www.w3.org/2000/svg" viewBox="0 0 4270.19 2375.18">
  <defs>
    <style>
      .cls-1 {
        fill: #3d59a3;
      }

      .cls-2 {
        fill: #3f5caa;
      }

      .cls-3 {
        fill: #3a559e;
      }

      .cls-4 {
        fill: #dfb0cb;
      }
    </style>
  </defs>
  <g id="bottt">
    <polygon class="cls-3" points="0 2374.84 643.91 1609.5 1119.84 2063.43 2165.01 1054.08 3275.52 2375.18 0 2374.84"/>
    <polygon class="cls-2" points="652.82 2375.18 1138.5 1472.53 2155.68 1995.17 3298.85 1274.72 3718.79 434.94 4269.29 1649.53 4270.19 2375.18 652.82 2375.18"/>
  </g>
  <g id="Stars">
    <g id="atop">
      <polygon class="cls-1" points="2165.41 619.14 2144.09 684.88 2073.36 684.88 2128.89 726.53 2108.2 793.33 2165.41 751.94 2222.14 793.33 2200.4 726.79 2257.77 685.67 2187.04 685.15 2165.41 619.14" />
      <polygon class="cls-4" points="1136.84 1037.96 1115.52 1103.71 1044.8 1103.71 1100.33 1145.36 1079.64 1212.15 1136.84 1170.76 1193.58 1212.15 1171.84 1145.62 1229.2 1104.5 1158.48 1103.97 1136.84 1037.96"/>
      <polygon class="cls-4" points="643.84 1174.59 622.52 1240.33 551.8 1240.33 607.33 1281.98 586.64 1348.78 643.84 1307.39 700.58 1348.78 678.84 1282.24 736.2 1241.12 665.48 1240.6 643.84 1174.59"/>
      <polygon class="cls-1" points="3718.48 0 3697.16 65.75 3626.44 65.75 3681.97 107.39 3661.27 174.19 3718.48 132.8 3775.21 174.19 3753.47 107.66 3810.84 66.53 3740.12 66.01 3718.48 0"/>
    </g>
  </g>
</svg>