<?xml version="1.0" encoding="UTF-8"?>
<svg id="Layer_2" data-name="Layer 2" xmlns="http://www.w3.org/2000/svg" viewBox="0 0 536.9 265.84">
  <defs>
    <style>
      .cls-1 {
        fill: none;
        stroke: #231f20;
        stroke-miterlimit: 10;
      }

      .cls-2 {
        fill: #3d59a3;
      }

      .cls-3 {
        fill: #231f20;
        font-family: EngraversMT, 'Engravers MT';
        font-size: 2.2vh;
      }

      .cls-4 {
        fill: #3f5caa;
      }

      .cls-5 {
        fill: #3a559e;
      }

      .cls-6 {
        fill: #dfb0cb;
      }
    </style>
  </defs>
  <g id="Layer_1-2" data-name="Layer 1">
    <polygon class="cls-5" points="58.96 265.8 131.03 180.14 184.29 230.95 301.28 117.98 425.57 265.84 58.96 265.8"/>
    <polygon class="cls-4" points="132.02 265.84 186.38 164.81 300.23 223.31 428.18 142.67 475.18 48.68 536.8 184.62 536.9 265.84 132.02 265.84"/>
    <polygon class="cls-2" points="301.32 69.3 298.93 76.66 291.02 76.66 297.23 81.32 294.92 88.79 301.32 84.16 307.67 88.79 305.24 81.35 311.66 76.74 303.74 76.68 301.32 69.3"/>
    <polygon class="cls-6" points="186.2 116.17 183.81 123.53 175.9 123.53 182.11 128.19 179.79 135.67 186.2 131.04 192.55 135.67 190.11 128.22 196.53 123.62 188.62 123.56 186.2 116.17"/>
    <polygon class="cls-6" points="131.02 131.47 128.63 138.82 120.72 138.82 126.93 143.49 124.62 150.96 131.02 146.33 137.37 150.96 134.94 143.51 141.36 138.91 133.44 138.85 131.02 131.47"/>
    <polygon class="cls-2" points="475.15 0 472.76 7.36 464.84 7.36 471.06 12.02 468.74 19.5 475.15 14.86 481.5 19.5 479.06 12.05 485.48 7.45 477.57 7.39 475.15 0"/>
    <line class="cls-1" x1="457.66" y1="54.17" x2="471.57" y2="49.11"/>
    <line class="cls-1" x1="304.7" y1="115.33" x2="318.61" y2="110.27"/> 
    <line class="cls-1" x1="171.76" y1="158.65" x2="185.67" y2="163.72"/>
    <line class="cls-1" x1="113.27" y1="185.81" x2="127.18" y2="180.75"/>
    <text class="cls-3" transform="translate(319.91 113.01)"><tspan x="0" y="0">Peak Ross</tspan></text>
    <text class="cls-3" transform="translate(81.3 162.13)"><tspan x="0" y="0">Peak Order</tspan></text>
    <text class="cls-3" transform="translate(6.22 189.12)"><tspan x="0" y="0">Peak Welcome</tspan></text>
    <text class="cls-3" transform="translate(367.58 64.22)"><tspan x="0" y="0">Peak Chocc</tspan></text>
  </g>
</svg>